<?xml version="1.0" standalone="no"?>
<!DOCTYPE svg PUBLIC "-//W3C//DTD SVG 20010904//EN"
 "http://www.w3.org/TR/2001/REC-SVG-20010904/DTD/svg10.dtd">
<svg version="1.0" xmlns="http://www.w3.org/2000/svg"
 width="484.000000pt" height="650.000000pt" viewBox="0 0 484.000000 650.000000"
 preserveAspectRatio="xMidYMid meet">

<g transform="translate(0.000000,650.000000) scale(0.100000,-0.100000)"
fill="#000000" stroke="none">
<path d="M83 4023 c3 -2220 5 -2415 21 -2503 16 -89 68 -262 85 -285 5 -5 25
-44 47 -85 51 -100 167 -239 272 -326 92 -77 235 -160 343 -199 151 -54 183
-57 664 -65 402 -6 455 -9 500 -25 176 -65 278 -179 360 -402 21 -57 41 -103
45 -103 4 0 24 46 45 103 82 223 184 337 360 402 45 16 98 19 500 25 481 8
513 11 664 65 108 39 251 122 343 199 105 87 221 226 272 326 22 41 42 80 47
85 4 6 22 51 38 101 64 192 61 38 61 2687 l0 2407 -2336 0 -2335 0 4 -2407z
m4395 -160 l-3 -2298 -23 -80 c-70 -248 -237 -453 -456 -560 -172 -84 -189
-87 -701 -95 l-450 -7 -85 -28 c-103 -33 -195 -83 -273 -147 -32 -26 -62 -48
-67 -48 -5 0 -35 22 -67 48 -78 64 -170 114 -273 147 l-85 28 -450 7 c-512 8
-529 11 -701 95 -219 107 -386 312 -456 560 l-23 80 -3 2298 -2 2297 2060 0
2060 0 -2 -2297z"/>
<path d="M2596 5938 c-3 -35 -10 -137 -16 -228 -6 -91 -12 -182 -15 -202 -5
-36 -4 -38 24 -38 16 0 31 -5 33 -12 3 -7 14 -9 30 -5 25 7 26 9 33 118 l7
111 35 -5 c48 -8 57 -18 125 -134 l60 -103 64 0 c35 0 64 2 64 4 0 14 -98 177
-121 202 l-29 30 49 21 c59 25 85 66 84 134 -1 55 -24 99 -64 123 -28 17 -112
29 -270 41 l-87 6 -6 -63z m296 -76 c16 -15 19 -27 13 -51 -9 -43 -40 -53
-131 -45 -82 7 -82 8 -68 94 l6 36 80 -7 c61 -6 86 -12 100 -27z"/>
<path d="M1840 5937 c-30 -5 -56 -10 -58 -11 -1 -2 -25 -110 -53 -242 -27
-131 -54 -256 -59 -278 l-8 -38 46 7 c79 11 79 11 87 70 8 65 11 68 124 85 94
14 92 15 134 -60 17 -32 18 -32 75 -25 31 4 59 9 61 11 4 3 -176 305 -259 434
l-35 56 -55 -9z m79 -240 c18 -32 32 -60 30 -62 -2 -2 -30 -6 -61 -10 -65 -8
-63 -11 -48 67 22 110 19 103 34 82 7 -10 27 -45 45 -77z"/>
<path d="M3731 5876 l-23 -24 36 -12 c32 -10 40 -9 73 11 39 24 36 28 -32 43
-25 5 -35 2 -54 -18z"/>
<path d="M3538 5613 c-95 -118 -174 -218 -176 -223 -2 -4 21 -16 49 -25 l53
-18 42 49 43 49 93 -31 93 -30 6 -62 c3 -34 8 -64 10 -66 2 -2 28 -11 57 -19
l52 -16 0 42 c0 53 -30 485 -35 512 -3 14 -20 24 -59 36 l-55 16 -173 -214z
m192 -39 c0 -46 -2 -84 -4 -84 -3 0 -63 20 -104 35 -9 3 4 27 40 74 29 37 56
66 61 64 4 -2 7 -42 7 -89z"/>
<path d="M1005 5699 c-71 -29 -132 -53 -134 -55 -3 -3 186 -484 194 -492 3 -4
87 29 98 38 4 3 -9 45 -28 93 -19 48 -35 88 -35 90 0 3 21 12 48 22 76 28 129
62 151 99 41 66 16 179 -49 226 -57 40 -100 37 -245 -21z m166 -70 c27 -14 38
-48 27 -80 -7 -20 -26 -34 -70 -54 -33 -15 -63 -23 -67 -19 -11 13 -52 117
-48 121 6 6 111 42 125 42 7 1 22 -4 33 -10z"/>
<path d="M2364 5380 l-29 -80 -92 0 c-72 0 -93 -3 -93 -14 0 -7 31 -39 69 -71
l69 -57 -19 -71 c-32 -125 -27 -129 71 -63 l65 43 65 -43 c98 -66 103 -62 71
63 l-19 71 69 57 c38 32 69 64 69 71 0 11 -21 14 -93 14 l-92 0 -29 80 c-15
44 -34 80 -41 80 -7 0 -26 -36 -41 -80z"/>
<path d="M2376 4902 c-15 -48 -32 -117 -38 -153 l-11 -66 -48 -16 c-73 -26
-135 -93 -155 -166 -16 -57 -18 -60 -44 -54 -25 5 -29 1 -41 -33 -14 -44 -18
-174 -6 -216 6 -24 12 -28 45 -28 33 0 40 -5 56 -35 10 -19 27 -42 37 -50 16
-16 15 -20 -17 -91 -19 -41 -34 -79 -34 -84 0 -5 23 -21 50 -35 28 -14 50 -22
50 -17 0 4 -20 18 -45 30 l-45 22 34 72 c37 83 31 81 161 53 66 -14 127 -19
318 -25 4 0 7 -4 7 -8 0 -5 -42 -22 -92 -38 -76 -23 -119 -30 -233 -35 l-140
-7 150 3 c132 1 160 5 230 28 44 15 85 27 91 27 6 0 27 -35 47 -77 35 -77 35
-78 14 -85 -20 -5 -19 -6 6 -7 15 -1 27 4 27 12 0 7 -22 56 -48 110 l-48 97
41 39 40 40 40 -35 c29 -24 50 -34 76 -34 43 0 79 33 79 74 0 27 -2 28 -34 23
-34 -5 -34 -5 -40 42 -3 26 -3 62 0 79 6 27 9 30 26 21 10 -6 33 -9 51 -7 31
3 32 5 35 55 3 49 1 53 -22 59 -21 5 -24 10 -19 35 15 75 -92 219 -162 219 -9
0 -27 12 -40 28 l-24 27 -33 -18 c-33 -18 -36 -18 -87 2 -28 12 -61 21 -71 21
-17 0 -20 7 -20 43 0 53 -55 233 -74 240 -9 4 -21 -19 -40 -81z m34 -71 l0
-129 -32 -5 c-18 -2 -35 -3 -37 -1 -9 8 55 264 65 264 2 0 4 -58 4 -129z m67
-73 l6 -58 -32 0 -31 0 1 133 1 132 25 -75 c14 -41 27 -101 30 -132z m95 -89
c28 -11 62 -31 74 -45 13 -13 32 -24 42 -24 18 0 19 -10 18 -212 -1 -162 2
-219 13 -237 12 -22 10 -27 -36 -73 -46 -46 -54 -50 -109 -55 -68 -6 -254 19
-334 45 -43 13 -60 26 -84 59 -16 24 -27 45 -25 47 3 3 62 10 132 15 189 16
247 47 247 131 0 15 -3 35 -6 44 -8 21 -55 20 -92 -1 -27 -16 -37 -16 -94 -4
-34 7 -92 25 -128 41 -63 27 -65 28 -62 61 4 52 39 115 84 150 94 75 252 101
360 58z m152 -42 c-8 -21 -34 -22 -60 -2 -19 15 -19 15 5 36 24 20 25 20 43 1
11 -11 16 -25 12 -35z m76 -12 c37 -19 92 -91 109 -143 12 -36 12 -44 -3 -66
-9 -14 -15 -38 -15 -53 1 -21 3 -23 6 -8 7 30 19 38 43 30 18 -6 21 -13 18
-48 -4 -51 -26 -58 -85 -28 -30 15 -51 39 -88 100 -27 45 -53 81 -57 81 -12 0
-10 108 2 131 13 23 31 24 70 4z m-25 -226 c27 -45 54 -83 60 -86 8 -2 11 -33
9 -89 -2 -73 1 -86 16 -94 13 -7 21 -7 25 0 10 16 35 11 35 -7 0 -25 -40 -63
-67 -63 -34 0 -90 46 -116 94 -18 35 -22 62 -25 184 -2 82 0 142 5 142 5 0 31
-36 58 -81z m-631 16 c133 -60 242 -80 282 -50 55 41 95 -8 63 -79 -18 -39
-92 -65 -221 -76 -62 -5 -136 -12 -164 -16 -40 -5 -52 -3 -57 9 -6 15 62 27
245 42 89 7 98 12 98 46 0 26 -4 29 -31 29 -79 0 -312 89 -302 116 3 8 6 14 8
14 1 0 37 -16 79 -35z m-79 -104 c-4 -44 -11 -81 -15 -81 -13 0 -21 65 -14
112 8 63 13 73 25 61 7 -7 8 -39 4 -92z m43 70 c19 -11 5 -138 -16 -146 -8 -3
-17 -3 -19 -1 -7 7 8 156 16 156 3 0 12 -4 19 -9z m50 -19 c9 -6 11 -24 6 -65
-6 -47 -10 -57 -25 -57 -21 0 -23 11 -13 84 7 48 10 51 32 38z m58 -55 c-3
-16 -6 -36 -6 -43 0 -8 -10 -14 -21 -14 -19 0 -21 4 -15 38 3 20 6 42 6 49 0
6 9 9 21 6 17 -5 20 -11 15 -36z m48 14 c3 -5 3 -23 0 -40 -5 -21 -12 -31 -25
-31 -21 0 -22 3 -13 49 6 29 26 41 38 22z m44 -9 c9 -7 10 -15 3 -35 -13 -34
-46 -38 -37 -4 3 12 6 28 6 35 0 14 9 15 28 4z m72 -22 c0 -13 -9 -22 -25 -26
-32 -8 -36 -4 -28 24 7 29 53 31 53 2z"/>
<path d="M981 4868 c-39 -19 -48 -31 -82 -102 -21 -45 -45 -111 -54 -148 -10
-38 -21 -68 -25 -68 -17 0 -72 -54 -89 -89 -29 -56 -34 -113 -21 -225 12 -100
12 -104 -8 -124 -51 -51 -50 -147 5 -270 20 -47 22 -59 12 -78 -19 -36 -4
-110 41 -201 27 -54 53 -92 76 -109 l35 -27 -23 -11 c-35 -17 -46 -91 -24
-150 15 -38 23 -47 54 -56 20 -5 57 -10 81 -10 39 0 50 -6 112 -61 37 -33 71
-69 74 -80 6 -19 35 -27 35 -10 0 4 -18 47 -40 94 -22 47 -40 94 -40 104 0 11
14 35 31 54 17 19 46 67 66 107 34 72 35 76 31 171 -2 68 -9 105 -20 122 -11
17 -13 30 -7 41 5 9 14 60 20 114 8 80 8 106 -3 138 -21 57 12 175 65 237 58
67 109 163 107 201 -3 51 -2 52 38 99 36 41 39 49 46 125 8 104 3 109 -98 101
-71 -5 -156 -36 -156 -56 0 -5 -17 -23 -38 -39 l-38 -31 0 87 c2 161 -49 207
-163 150z m-1 -708 c-7 -52 -7 -53 -9 -13 -1 36 7 80 14 71 1 -2 -1 -28 -5
-58z m-24 -328 c-2 -2 -13 23 -24 56 -17 50 -18 61 -6 77 8 10 15 46 15 79 1
34 6 0 10 -74 5 -74 7 -136 5 -138z m31 246 c-3 -8 -6 -5 -6 6 -1 11 2 17 5
13 3 -3 4 -12 1 -19z m-17 -395 c13 -132 12 -135 -14 -83 -19 39 -22 56 -18
129 5 107 19 88 32 -46z m47 -115 c-3 -7 -5 -2 -5 12 0 14 2 19 5 13 2 -7 2
-19 0 -25z m28 -83 c1 -52 0 -95 -1 -95 -1 0 -7 29 -13 63 -8 47 -8 72 0 95 6
18 12 32 12 32 1 0 2 -43 2 -95z m-66 -94 c31 -6 35 -10 60 -86 15 -44 33 -91
40 -103 7 -13 10 -26 7 -29 -12 -13 -44 30 -56 75 -18 68 -46 108 -93 138 -27
16 -33 23 -17 18 14 -4 40 -10 59 -13z m113 -105 c-5 -19 -7 -18 -18 9 -19 44
-17 61 5 34 10 -13 16 -31 13 -43z"/>
<path d="M3732 4883 c-30 -12 -47 -67 -46 -160 l0 -91 -38 30 c-21 16 -38 34
-38 39 0 20 -85 51 -156 56 -101 8 -106 3 -98 -101 7 -76 10 -84 46 -125 40
-47 41 -48 38 -99 -2 -38 49 -134 107 -201 53 -62 86 -180 65 -237 -11 -32
-11 -58 -3 -138 6 -54 15 -105 20 -114 6 -11 4 -24 -7 -41 -11 -17 -18 -54
-20 -122 -4 -95 -3 -99 31 -171 20 -40 49 -88 66 -107 17 -19 31 -43 31 -54 0
-10 -18 -57 -40 -104 -22 -47 -40 -90 -40 -94 0 -17 29 -9 35 10 3 11 37 47
74 80 62 55 73 61 112 61 24 0 61 5 81 10 31 9 39 18 54 56 22 59 11 133 -24
150 l-23 11 35 27 c23 17 49 55 76 109 45 91 60 165 41 201 -10 19 -8 31 12
78 55 123 56 219 5 270 -20 20 -20 24 -8 124 13 112 8 169 -21 225 -17 35 -72
89 -89 89 -4 0 -15 30 -25 68 -9 37 -33 103 -54 148 -34 72 -43 83 -83 102
-42 21 -87 27 -116 15z m127 -733 c-1 -53 -6 -44 -12 24 -3 30 -1 43 4 35 5
-8 8 -34 8 -59z m-12 -72 c-3 -8 -6 -5 -6 6 -1 11 2 17 5 13 3 -3 4 -12 1 -19z
m60 -119 c8 -8 6 -26 -9 -71 -11 -32 -22 -58 -23 -56 -2 2 -1 64 3 138 6 117
7 126 12 68 3 -37 10 -72 17 -79z m-33 -359 c-26 -51 -27 -49 -14 81 13 135
24 152 31 49 5 -76 3 -90 -17 -130z m-57 -32 c-3 -7 -5 -2 -5 12 0 14 2 19 5
13 2 -7 2 -19 0 -25z m-18 -113 c-6 -36 -12 -65 -13 -65 -1 0 -2 43 -1 96 0
87 1 93 13 64 10 -24 10 -45 1 -95z m94 -70 c-47 -29 -74 -69 -93 -137 -11
-44 -44 -88 -55 -76 -3 3 6 30 20 61 13 31 30 77 36 103 7 25 17 47 23 49 34
9 92 23 101 24 6 0 -9 -10 -32 -24z m-134 -82 c-10 -32 -13 -35 -19 -18 -4 12
-1 28 9 42 22 29 25 21 10 -24z"/>
<path d="M1696 4041 c-3 -4 -16 -7 -28 -4 -31 5 -81 -65 -72 -100 3 -14 1 -28
-5 -31 -26 -16 -4 -45 83 -115 51 -41 103 -78 114 -82 11 -4 28 -19 38 -33 10
-17 25 -26 42 -26 14 0 34 -7 44 -17 11 -9 18 -11 18 -5 0 7 -9 17 -19 24 -18
11 -18 14 -4 42 8 17 24 41 36 53 19 21 21 22 47 6 25 -14 30 -14 50 0 l22 15
-31 18 c-20 12 -31 26 -31 40 0 26 -47 64 -76 62 -23 -2 -144 89 -144 108 0
32 -69 69 -84 45z m48 -16 c11 -8 16 -18 13 -22 -9 -9 -58 18 -51 29 7 11 16
10 38 -7z m-16 -33 c7 -5 10 -16 6 -25 -5 -15 -8 -15 -30 0 -13 8 -24 24 -24
35 0 19 7 18 48 -10z m-15 -82 c-5 -27 -2 -31 30 -45 20 -8 38 -24 42 -35 5
-17 15 -20 60 -20 36 0 60 -6 75 -18 l22 -18 -25 -38 c-15 -21 -29 -46 -32
-57 -4 -12 -14 -19 -23 -17 -13 2 -16 12 -14 37 4 34 3 34 -31 28 -31 -5 -42
1 -108 55 -41 33 -84 68 -97 78 l-23 19 38 49 38 49 27 -19 c23 -16 26 -24 21
-48z m102 -31 c36 -22 65 -45 65 -50 0 -5 -18 -9 -39 -9 -31 0 -41 4 -46 20
-4 11 -22 27 -41 35 -33 14 -41 25 -27 38 11 12 22 8 88 -34z m175 -48 c0 -4
-6 -16 -14 -26 -13 -18 -16 -18 -41 -5 -36 19 -41 36 -20 60 17 19 18 19 46
-1 16 -11 29 -24 29 -28z m-150 -127 c0 -14 -3 -14 -15 -4 -8 7 -15 14 -15 16
0 2 7 4 15 4 8 0 15 -7 15 -16z"/>
<path d="M3072 4030 c-12 -12 -22 -27 -22 -34 0 -19 -121 -110 -144 -108 -29
2 -76 -36 -76 -62 0 -14 -11 -28 -31 -40 l-31 -18 22 -15 c20 -14 25 -14 50 0
26 16 28 15 47 -6 12 -12 28 -36 36 -53 14 -28 14 -31 -4 -42 -10 -7 -19 -17
-19 -24 0 -6 7 -4 18 5 10 10 30 17 44 17 17 0 32 9 42 26 10 14 27 29 38 33
11 4 63 41 114 82 87 70 109 99 83 115 -6 3 -8 17 -5 31 9 35 -41 105 -72 100
-12 -3 -25 0 -28 4 -9 15 -39 10 -62 -11z m52 2 c7 -11 -42 -38 -51 -29 -3 4
2 14 13 22 22 17 31 18 38 7z m5 -63 c-21 -16 -25 -16 -32 -3 -5 9 -7 17 -5
18 44 33 53 37 57 20 2 -10 -7 -25 -20 -35z m89 -108 c-13 -11 -56 -46 -97
-79 -66 -54 -77 -60 -108 -55 -34 6 -35 6 -31 -28 2 -25 -1 -35 -14 -37 -9 -2
-19 5 -23 17 -3 11 -17 36 -32 57 l-25 38 22 18 c15 12 39 18 75 18 45 0 55 3
60 20 4 11 22 27 42 35 32 14 35 18 30 44 -5 24 -1 33 20 49 l27 19 38 -49 39
-49 -23 -18z m-110 41 c2 -7 -11 -19 -31 -27 -20 -8 -38 -24 -42 -35 -5 -16
-15 -20 -46 -20 -21 0 -39 4 -39 9 0 13 122 90 139 88 8 -1 16 -8 19 -15z
m-178 -67 c0 -13 -42 -45 -59 -45 -6 0 -16 10 -22 22 -10 19 -8 25 17 44 26
22 30 22 46 7 10 -9 18 -22 18 -28z m90 -119 c0 -2 -7 -9 -15 -16 -12 -10 -15
-10 -15 4 0 9 7 16 15 16 8 0 15 -2 15 -4z"/>
<path d="M2411 3804 c0 -11 3 -14 6 -6 3 7 2 16 -1 19 -3 4 -6 -2 -5 -13z"/>
<path d="M1497 3670 l-36 -80 -85 0 c-107 0 -110 -10 -21 -76 35 -27 65 -54
65 -60 0 -6 -11 -44 -25 -84 -40 -119 -35 -123 67 -55 37 25 70 45 73 45 3 0
36 -20 73 -45 100 -68 105 -63 73 62 l-19 71 69 57 c38 32 69 64 69 71 0 11
-21 14 -93 14 l-92 0 -29 80 c-15 44 -34 80 -40 80 -7 0 -29 -36 -49 -80z"/>
<path d="M3244 3670 l-29 -80 -92 0 c-72 0 -93 -3 -93 -14 0 -7 31 -39 69 -71
l69 -57 -19 -71 c-32 -125 -27 -130 73 -62 37 25 70 45 73 45 3 0 36 -20 73
-45 102 -68 107 -64 67 55 -14 40 -25 78 -25 84 0 6 30 33 65 60 89 66 86 76
-21 76 l-85 0 -36 80 c-20 44 -42 80 -49 80 -6 0 -25 -36 -40 -80z"/>
<path d="M2413 3690 c0 -25 2 -35 4 -22 2 12 2 32 0 45 -2 12 -4 2 -4 -23z"/>
<path d="M2483 3695 c0 -22 2 -30 4 -17 2 12 2 30 0 40 -3 9 -5 -1 -4 -23z"/>
<path d="M2120 3710 c0 -5 5 -10 10 -10 6 0 10 5 10 10 0 6 -4 10 -10 10 -5 0
-10 -4 -10 -10z"/>
<path d="M2332 3690 c0 -19 2 -27 5 -17 2 9 2 25 0 35 -3 9 -5 1 -5 -18z"/>
<path d="M2690 3710 c0 -5 5 -10 10 -10 6 0 10 5 10 10 0 6 -4 10 -10 10 -5 0
-10 -4 -10 -10z"/>
<path d="M2205 3610 c3 -5 8 -10 11 -10 2 0 4 5 4 10 0 6 -5 10 -11 10 -5 0
-7 -4 -4 -10z"/>
<path d="M2610 3609 c0 -5 5 -7 10 -4 6 3 10 8 10 11 0 2 -4 4 -10 4 -5 0 -10
-5 -10 -11z"/>
<path d="M2286 3584 c-3 -9 -6 -17 -6 -19 0 -1 35 -25 78 -53 70 -46 81 -51
116 -45 l39 6 -22 18 -22 18 41 27 c26 17 39 32 35 41 -3 8 -5 17 -5 19 0 12
-40 1 -72 -21 -45 -30 -46 -30 -51 -2 l-4 22 -2 -23 c0 -13 -4 -22 -8 -20 -49
24 -63 32 -63 40 0 15 -48 8 -54 -8z"/>
<path d="M1990 3583 c0 -5 12 -18 28 -29 41 -30 52 -36 52 -27 -1 11 -80 66
-80 56z"/>
<path d="M2798 3562 c-21 -15 -38 -31 -38 -35 0 -9 24 4 60 32 38 30 20 33
-22 3z"/>
<path d="M2155 3370 c-17 -11 -23 -20 -15 -20 17 1 56 28 49 34 -3 3 -18 -4
-34 -14z"/>
<path d="M2265 3370 c10 -11 25 -20 33 -20 9 0 6 7 -11 20 -14 11 -29 20 -33
20 -4 0 1 -9 11 -20z"/>
<path d="M2640 3382 c0 -10 48 -37 55 -31 2 3 -9 13 -25 23 -17 9 -30 13 -30
8z"/>
<path d="M1973 3252 c-47 -31 -60 -42 -47 -42 5 0 34 16 64 35 30 19 48 34 40
34 -8 0 -34 -12 -57 -27z"/>
<path d="M2395 3271 c3 -5 -5 -17 -17 -25 -18 -13 -19 -16 -6 -16 9 0 20 5 24
11 4 8 9 7 15 -2 7 -12 9 -11 9 1 0 11 3 11 12 2 7 -7 19 -12 27 -12 8 0 0 11
-19 25 -34 25 -56 33 -45 16z"/>
<path d="M2840 3245 c52 -32 70 -41 70 -31 0 8 -100 66 -113 66 -6 0 13 -16
43 -35z"/>
<path d="M1764 3087 c-124 -126 -154 -167 -208 -275 -64 -128 -90 -241 -82
-355 14 -186 97 -297 221 -297 91 0 135 47 135 143 0 45 -4 57 -26 78 -59 54
-84 99 -84 153 0 71 15 119 49 155 28 30 33 31 108 31 116 0 237 43 251 90 3
10 -4 7 -19 -7 -46 -42 -118 -66 -209 -70 -47 -2 -95 -6 -107 -9 -29 -6 -69
-67 -78 -116 -8 -44 -25 -41 -25 3 0 41 24 86 72 136 l41 42 66 -6 c75 -6 165
15 187 44 17 23 18 39 1 24 -11 -8 -19 -5 -34 12 -12 12 -23 31 -26 42 -4 17
-5 16 -6 -4 -1 -14 10 -37 25 -52 24 -26 25 -27 7 -33 -11 -4 -36 0 -56 9 -20
8 -51 15 -69 15 l-32 0 54 55 c30 30 51 55 47 55 -4 0 -43 -11 -85 -24 -42
-13 -90 -27 -105 -30 -26 -6 -28 -5 -22 16 15 47 47 101 86 143 49 53 51 71 3
24 -41 -40 -77 -96 -99 -158 l-15 -44 42 7 c24 4 65 14 91 22 27 9 50 14 53
12 2 -3 -41 -46 -96 -97 -56 -51 -110 -110 -120 -132 -24 -46 -26 -111 -5
-129 8 -7 15 -29 15 -50 0 -25 10 -50 31 -80 28 -38 29 -45 19 -71 -7 -16 -28
-43 -47 -59 -31 -28 -40 -30 -107 -30 l-74 0 -21 58 c-51 139 -32 300 55 474
54 108 84 149 208 275 49 51 87 95 85 98 -3 3 -46 -37 -95 -88z m186 -269 c30
-10 32 -12 14 -19 -24 -9 -91 -11 -122 -3 -18 5 -20 9 -11 20 14 17 74 18 119
2z m-130 -515 c0 -83 -48 -133 -127 -133 -43 0 -109 34 -131 68 l-14 22 70 0
c65 0 74 3 105 30 19 16 40 44 47 60 12 29 14 30 31 14 13 -12 19 -31 19 -61z"/>
<path d="M2970 3174 c0 -5 32 -41 71 -79 108 -108 172 -191 223 -293 87 -174
106 -335 55 -474 l-21 -58 -74 0 c-67 0 -76 2 -107 30 -19 16 -40 43 -47 59
-10 26 -9 33 19 71 21 30 31 55 31 80 0 21 7 43 15 50 21 18 19 83 -5 129 -10
22 -64 81 -120 132 -55 51 -98 94 -96 97 3 2 26 -3 53 -12 26 -8 67 -18 91
-22 l42 -7 -15 44 c-22 62 -58 118 -99 158 -48 47 -46 29 3 -24 39 -42 71 -96
86 -143 6 -21 4 -22 -22 -16 -15 3 -63 17 -105 30 -42 13 -81 24 -85 24 -4 0
17 -25 47 -55 l54 -55 -32 0 c-18 0 -49 -7 -69 -15 -20 -9 -45 -13 -56 -9 -18
6 -17 7 7 33 15 15 26 38 25 52 -1 20 -2 21 -6 4 -3 -11 -14 -30 -26 -42 -15
-17 -23 -20 -34 -12 -17 15 -16 -1 1 -24 22 -29 112 -50 187 -44 l66 6 41 -42
c48 -50 72 -95 72 -136 0 -44 -17 -47 -25 -3 -9 49 -49 110 -78 116 -12 3 -60
7 -107 9 -91 4 -163 28 -209 70 -15 14 -22 17 -19 7 14 -47 135 -90 251 -90
75 0 80 -1 108 -31 34 -36 49 -84 49 -155 0 -54 -25 -99 -84 -153 -22 -21 -26
-33 -26 -78 0 -96 44 -143 135 -143 167 0 265 225 206 472 -26 109 -97 253
-167 338 -63 78 -204 219 -204 204z m29 -358 c9 -11 7 -15 -11 -20 -31 -8 -99
-6 -123 3 -18 7 -17 9 10 19 43 15 111 14 124 -2z m111 -530 c28 -23 41 -26
102 -26 l70 0 -14 -22 c-8 -13 -33 -33 -54 -45 -70 -41 -158 -23 -189 37 -20
39 -19 109 2 132 16 18 18 18 35 -15 9 -19 31 -46 48 -61z"/>
<path d="M2413 3105 c0 -38 2 -53 4 -32 2 20 2 52 0 70 -2 17 -4 1 -4 -38z"/>
<path d="M2260 3149 c0 -5 5 -7 10 -4 6 3 10 8 10 11 0 2 -4 4 -10 4 -5 0 -10
-5 -10 -11z"/>
<path d="M2333 3095 c0 -38 2 -53 4 -32 2 20 2 52 0 70 -2 17 -4 1 -4 -38z"/>
<path d="M2483 3100 c0 -36 2 -50 4 -32 2 17 2 47 0 65 -2 17 -4 3 -4 -33z"/>
<path d="M2555 3150 c3 -5 8 -10 11 -10 2 0 4 5 4 10 0 6 -5 10 -11 10 -5 0
-7 -4 -4 -10z"/>
<path d="M2184 3046 c-3 -21 -4 -39 -1 -42 2 -3 8 11 11 32 4 20 5 38 2 41 -2
3 -8 -11 -12 -31z"/>
<path d="M2632 3065 c0 -11 4 -31 8 -45 l8 -25 0 25 c0 14 -3 34 -8 45 l-9 20
1 -20z"/>
<path d="M2057 3014 c-16 -9 -27 -18 -24 -20 7 -7 57 18 57 28 0 10 1 10 -33
-8z"/>
<path d="M2740 3022 c0 -10 50 -35 57 -28 3 2 -9 12 -26 21 -17 8 -31 12 -31
7z"/>
<path d="M1095 3013 c-58 -13 -106 -40 -157 -90 l-57 -56 -46 41 c-51 45 -137
82 -189 82 l-34 0 -7 -132 c-6 -121 4 -313 21 -395 6 -30 4 -32 -36 -44 l-42
-13 5 -56 c6 -71 74 -276 132 -398 187 -394 522 -730 915 -916 513 -243 1127
-243 1640 0 393 186 728 522 915 916 58 122 126 327 132 398 l5 56 -42 13
c-40 12 -42 14 -36 44 17 82 27 274 21 395 l-7 132 -34 0 c-52 0 -138 -37
-189 -82 l-46 -41 -57 56 c-64 62 -111 85 -193 94 l-57 6 1 -234 c1 -148 -4
-256 -11 -294 -13 -64 -12 -68 44 -101 17 -10 17 -13 -6 -75 -80 -220 -225
-423 -410 -576 -118 -96 -169 -130 -290 -187 -350 -165 -770 -165 -1120 0
-121 57 -172 91 -290 187 -185 153 -330 356 -410 576 -23 62 -23 65 -6 75 56
33 57 37 44 101 -7 38 -12 146 -11 293 l1 232 -37 -1 c-20 -1 -45 -3 -56 -6z
m51 -235 c0 -121 5 -227 12 -262 11 -55 10 -77 -4 -64 -3 3 -8 31 -11 62 -3
31 -11 60 -17 65 -8 7 -86 -14 -230 -61 -174 -56 -220 -68 -227 -57 -4 7 -11
43 -16 79 -9 79 -10 396 -1 405 16 16 110 -29 162 -76 30 -27 60 -49 68 -49 7
0 40 27 73 61 65 66 113 92 181 98 8 1 11 -61 10 -201z m2649 176 c17 -7 57
-40 90 -73 33 -34 66 -61 73 -61 8 0 38 22 68 49 52 47 146 92 162 76 9 -9 8
-326 -1 -405 -5 -36 -12 -72 -16 -79 -7 -11 -53 1 -227 57 -144 47 -222 68
-230 61 -6 -5 -14 -34 -17 -65 -3 -31 -8 -59 -11 -62 -14 -13 -15 9 -4 64 7
35 12 141 12 262 l-1 202 36 -6 c20 -4 50 -13 66 -20z m-2669 -519 c-4 -13
-26 64 -25 90 0 11 7 -2 15 -30 7 -27 12 -54 10 -60z m2604 35 c-16 -60 -23
-43 -8 21 7 30 14 46 16 37 2 -9 -2 -35 -8 -58z m-2644 -40 c65 -249 171 -436
358 -627 65 -68 103 -113 93 -113 -20 0 -22 -11 -5 -28 14 -14 58 -16 58 -3 0
5 30 -11 67 -36 258 -173 582 -255 884 -225 346 35 628 170 867 416 177 182
302 409 353 639 7 32 16 60 21 63 9 6 448 -133 462 -146 20 -19 -65 -284 -139
-430 -217 -431 -600 -775 -1040 -933 -221 -80 -403 -111 -645 -111 -242 0
-424 31 -645 111 -503 181 -928 603 -1115 1108 -42 114 -76 243 -66 253 10 11
439 151 455 149 10 -1 23 -33 37 -87z"/>
<path d="M836 2294 c-93 -40 -171 -75 -173 -77 -6 -6 19 -57 27 -57 4 0 33 11
65 25 32 14 58 25 59 23 1 -2 11 -22 21 -46 28 -64 38 -66 138 -23 127 54 125
51 85 150 -18 44 -37 81 -43 80 -5 0 -86 -34 -179 -75z m168 -33 l15 -28 -61
-27 c-63 -27 -71 -26 -82 9 -6 20 8 29 111 74 1 1 9 -12 17 -28z"/>
<path d="M3786 2308 c-31 -47 -68 -140 -60 -148 10 -10 333 -160 344 -160 6 0
30 44 30 54 0 2 -67 34 -150 72 -82 38 -150 74 -150 80 0 5 6 18 13 28 13 18
15 18 61 -3 45 -19 47 -23 41 -50 -7 -33 -2 -36 80 -46 28 -3 69 -8 92 -11 39
-5 43 -3 57 24 8 16 12 32 9 36 -4 3 -27 6 -52 6 -25 0 -63 3 -84 7 -31 5 -38
10 -34 24 3 10 -3 25 -12 33 -17 15 -146 76 -162 76 -5 0 -15 -10 -23 -22z"/>
<path d="M990 1997 c-79 -51 -148 -100 -154 -109 -7 -12 0 -31 30 -78 21 -35
47 -68 56 -74 21 -13 26 -10 188 97 148 97 151 103 87 191 -23 33 -47 61 -53
63 -6 2 -75 -39 -154 -90z m165 -13 c21 -32 24 -29 -112 -117 l-103 -66 -16
24 c-9 13 -14 29 -12 34 3 10 206 148 219 150 4 1 14 -11 24 -25z"/>
<path d="M3604 1985 c-16 -25 -16 -25 116 -162 73 -76 137 -139 143 -141 7 -1
18 7 25 19 12 19 11 24 -12 48 -27 28 -27 30 10 79 1 2 17 -4 35 -13 31 -17
33 -17 50 6 10 13 19 26 19 29 0 5 -351 160 -362 160 -4 0 -15 -11 -24 -25z
m226 -136 c0 -4 -6 -11 -13 -17 -10 -9 -24 -1 -58 34 l-44 46 58 -28 c31 -16
57 -31 57 -35z"/>
<path d="M3430 1775 l-64 -65 22 -23 23 -22 20 24 19 23 121 -116 122 -117 24
23 25 23 -124 117 -123 116 23 24 c22 24 22 25 4 41 -10 9 -21 17 -23 17 -3 0
-34 -29 -69 -65z"/>
<path d="M1190 1705 c-74 -69 -136 -129 -138 -134 -2 -5 21 -34 49 -65 52 -57
52 -57 72 -38 19 20 19 20 -9 57 l-29 38 120 112 c120 113 120 113 101 134
-11 12 -22 21 -25 21 -3 0 -67 -56 -141 -125z"/>
<path d="M3297 1652 c-17 -18 -13 -25 105 -169 120 -147 123 -150 145 -136 13
9 23 20 23 25 0 13 -230 292 -244 296 -7 1 -20 -6 -29 -16z"/>
<path d="M1381 1508 l-123 -152 23 -19 c12 -9 25 -16 29 -15 11 4 240 288 240
297 0 8 -33 41 -41 41 -3 0 -60 -68 -128 -152z"/>
<path d="M1602 1562 c-17 -11 -192 -293 -192 -309 0 -18 136 -107 153 -100 8
3 28 28 45 55 l31 50 -26 18 c-28 18 -34 14 -63 -36 -7 -12 -12 -12 -34 0 -15
7 -25 19 -24 26 6 24 133 223 143 223 6 0 19 -6 30 -15 19 -14 19 -16 2 -46
-18 -31 -18 -33 -1 -45 10 -7 23 -13 30 -13 16 0 66 78 62 98 -2 9 -32 36 -68
59 -71 47 -69 46 -88 35z"/>
<path d="M3093 1512 l-22 -17 98 -160 c54 -87 103 -161 108 -162 12 -4 133 66
133 76 0 3 -7 15 -15 25 -15 19 -16 19 -55 -3 l-39 -22 -24 38 c-13 21 -52 84
-86 141 -35 56 -66 102 -69 102 -4 0 -17 -8 -29 -18z"/>
<path d="M2983 1460 c-13 -5 -23 -14 -23 -20 0 -23 153 -350 164 -350 7 0 21
6 31 14 18 13 15 22 -61 190 -43 97 -81 176 -84 175 -3 0 -15 -4 -27 -9z"/>
<path d="M1870 1408 c-6 -13 -39 -95 -74 -183 l-64 -160 29 -14 c16 -8 30 -13
32 -10 2 2 36 84 75 182 l70 177 -29 15 c-28 15 -30 14 -39 -7z"/>
<path d="M2777 1383 c-4 -3 -7 -31 -8 -62 0 -31 -4 -76 -7 -101 l-7 -45 -48
93 c-46 88 -49 92 -75 86 -15 -4 -29 -8 -31 -10 -3 -3 63 -324 75 -367 5 -15
12 -17 32 -12 15 4 28 8 30 10 3 3 -10 78 -24 140 -2 11 9 -6 26 -37 21 -40
36 -58 50 -58 17 0 19 8 22 73 l3 72 19 -82 c16 -72 22 -83 40 -83 43 0 44 9
3 203 -40 186 -40 187 -67 187 -15 0 -30 -3 -33 -7z"/>
<path d="M1971 1188 c-64 -141 -80 -183 -69 -189 26 -17 50 -9 61 21 11 29 29
36 61 24 11 -4 16 -19 16 -44 0 -33 3 -38 28 -43 15 -3 28 -4 29 -3 7 6 22
391 16 397 -5 3 -20 9 -34 12 -25 6 -28 1 -108 -175z m75 -85 c-2 -3 -14 -2
-25 2 -19 6 -19 6 2 58 l22 52 3 -54 c2 -29 1 -55 -2 -58z"/>
<path d="M2413 2940 c0 -25 2 -35 4 -22 2 12 2 32 0 45 -2 12 -4 2 -4 -23z"/>
<path d="M2332 2940 c0 -19 2 -27 5 -17 2 9 2 25 0 35 -3 9 -5 1 -5 -18z"/>
<path d="M2483 2935 c0 -22 2 -30 4 -17 2 12 2 30 0 40 -3 9 -5 -1 -4 -23z"/>
<path d="M2411 2824 c0 -11 3 -14 6 -6 3 7 2 16 -1 19 -3 4 -6 -2 -5 -13z"/>
<path d="M2332 2618 l-2 -138 -47 0 c-87 0 -122 42 -78 90 30 33 12 80 -31 80
-35 0 -47 -26 -52 -108 -4 -76 -3 -78 27 -107 29 -26 40 -30 106 -33 l75 -4 0
-241 c0 -156 -4 -252 -11 -272 -7 -18 -9 -44 -5 -58 6 -26 10 -27 69 -27 55 0
67 3 88 26 l24 26 -4 274 -3 274 106 0 106 0 0 40 0 40 -105 0 -104 0 -4 138
-3 137 -2 -137 -2 -138 -30 0 -29 0 -4 133 -3 132 -2 -132 -2 -133 -35 0 -34
0 -4 138 -3 137 -2 -137z m-128 0 c8 -13 6 -22 -8 -37 -10 -11 -19 -34 -19
-52 -3 -55 17 -59 281 -59 l232 0 0 -30 0 -31 -249 3 -250 3 -31 30 c-31 29
-32 32 -27 97 2 37 10 75 17 83 16 19 39 16 54 -7z m156 -387 c0 -103 -4 -172
-10 -176 -7 -4 -10 55 -10 169 0 111 4 176 10 176 6 0 10 -63 10 -169z m120
32 l0 -138 -50 -27 c-28 -16 -52 -28 -55 -28 -3 0 -5 74 -5 165 l0 165 55 0
55 0 0 -137z m8 -310 c-3 -80 -6 -95 -27 -117 -20 -22 -33 -26 -78 -26 -47 0
-53 2 -59 24 -3 13 -1 33 5 44 6 12 11 52 11 89 l0 69 68 36 67 36 8 -32 c5
-17 7 -72 5 -123z"/>
<path d="M2364 1886 c-10 -26 4 -48 28 -44 17 2 23 10 23 28 0 18 -6 26 -23
28 -13 2 -25 -3 -28 -12z m42 -7 c10 -17 -13 -36 -27 -22 -12 12 -4 33 11 33
5 0 12 -5 16 -11z"/>
<path d="M2044 1756 c-3 -7 -21 -22 -40 -32 -26 -14 -34 -25 -34 -45 0 -22 4
-26 20 -22 11 3 23 9 26 14 15 26 24 1 24 -71 l0 -80 35 0 35 0 0 125 0 125
-30 0 c-17 0 -33 -6 -36 -14z"/>
<path d="M2220 1750 c-23 -23 -26 -53 -6 -69 13 -11 12 -15 -5 -32 -27 -27
-24 -74 6 -104 34 -35 106 -35 140 0 30 29 33 77 6 104 -17 17 -17 20 -4 34
22 22 9 65 -23 77 -42 16 -92 12 -114 -10z m80 -45 c0 -8 -7 -15 -15 -15 -8 0
-15 7 -15 15 0 8 7 15 15 15 8 0 15 -7 15 -15z m5 -100 c0 -23 -4 -30 -20 -30
-21 0 -31 25 -21 51 11 28 41 12 41 -21z"/>
<path d="M2504 1756 c-3 -7 -21 -22 -40 -32 -26 -14 -34 -25 -34 -45 0 -22 4
-26 20 -22 11 3 23 9 26 14 15 26 24 1 24 -71 l0 -80 35 0 35 0 0 125 0 125
-30 0 c-17 0 -33 -6 -36 -14z"/>
<path d="M2680 1750 c-23 -23 -26 -53 -6 -69 13 -11 12 -15 -5 -32 -27 -27
-24 -74 6 -104 34 -35 106 -35 140 0 30 29 33 77 6 104 -17 17 -17 20 -4 34
22 22 9 65 -23 77 -42 16 -92 12 -114 -10z m80 -45 c0 -8 -7 -15 -15 -15 -8 0
-15 7 -15 15 0 8 7 15 15 15 8 0 15 -7 15 -15z m5 -100 c0 -23 -4 -30 -20 -30
-21 0 -31 25 -21 51 11 28 41 12 41 -21z"/>
</g>
</svg>
